<?xml version="1.0" encoding="UTF-8" standalone="no"?>
<!-- Created with Inkscape (http://www.inkscape.org/) -->

<svg
   version="1.1"
   id="svg32"
   width="1488.254"
   height="1384.127"
   viewBox="0 0 1488.254 1384.127"
   sodipodi:docname="conjure_logo.jpg"
   inkscape:version="1.2.2 (b0a8486541, 2022-12-01)"
   xmlns:inkscape="http://www.inkscape.org/namespaces/inkscape"
   xmlns:sodipodi="http://sodipodi.sourceforge.net/DTD/sodipodi-0.dtd"
   xmlns="http://www.w3.org/2000/svg"
   xmlns:svg="http://www.w3.org/2000/svg">
  <defs
     id="defs36" />
  <sodipodi:namedview
     id="namedview34"
     pagecolor="#ffffff"
     bordercolor="#000000"
     borderopacity="0.25"
     inkscape:showpageshadow="2"
     inkscape:pageopacity="0.0"
     inkscape:pagecheckerboard="0"
     inkscape:deskcolor="#d1d1d1"
     showgrid="false"
     inkscape:zoom="0.36918579"
     inkscape:cx="566.11063"
     inkscape:cy="174.70878"
     inkscape:window-width="1276"
     inkscape:window-height="676"
     inkscape:window-x="0"
     inkscape:window-y="0"
     inkscape:window-maximized="1"
     inkscape:current-layer="g38" />
  <g
     inkscape:groupmode="layer"
     inkscape:label="Image"
     id="g38">
    <g
       id="g146"
       transform="translate(1.9537616,3.301953)">
      <path
         style="fill:#2c82d7;stroke-width:2.53968"
         d="m 358.02551,1240.5509 c -4.51797,-5.4438 -1.26855,-24.9692 5.74169,-34.5012 7.45467,-10.1363 20.13404,-16.3747 37.21605,-18.3106 15.10623,-1.712 21.81945,-6.2439 24.38374,-16.4609 0.93326,-3.7183 5.52257,-15.9199 10.19848,-27.1146 4.67591,-11.1947 9.34535,-22.6398 10.37651,-25.4334 1.03116,-2.7937 3.75723,-10.2223 6.05795,-16.508 5.3663,-14.6611 10.20722,-15.3235 28.00008,-3.8313 7.68254,4.9621 17.8177,10.0849 22.52262,11.3842 4.70489,1.2993 10.75362,4.3526 13.44162,6.7852 2.688,2.4327 8.55284,5.8058 13.03294,7.496 4.48013,1.6902 15.42123,6.1394 24.31358,9.8872 16.94001,7.1395 26.68162,10.0977 66.37178,20.155 47.17181,11.953 56.58367,12.8942 126.98413,12.6994 64.61715,-0.1788 68.41588,-0.4647 95.2381,-7.1663 15.36508,-3.839 34.22222,-9.073 41.90476,-11.6311 7.68254,-2.5582 21.96826,-7.1962 31.74604,-10.3069 21.42707,-6.8167 77.60632,-33.7851 87.20562,-41.8625 3.787,-3.1865 9.6996,-6.1949 13.139,-6.6854 5.5801,-0.7957 6.8455,0.7491 11.7513,14.3464 7.0814,19.6272 15.3883,40.4807 21.2802,53.4214 2.5659,5.6358 5.4751,13.473 6.4647,17.4162 2.1669,8.6337 13.7612,14.2417 29.4443,14.2417 13.0522,0 25.1951,7.6502 32.3503,20.3812 5.2723,9.3809 7.6777,27.1292 4.3962,32.4387 -1.4537,2.3521 -88.6853,3.0394 -381.14807,3.0031 -333.39882,-0.041 -379.64397,-0.5063 -382.41362,-3.8435 z m 348.00625,-112.2387 c -18.98029,-1.1409 -64.64709,-7.8869 -71.71815,-10.5942 -3.15819,-1.2092 -16.59931,-5.3527 -29.86915,-9.2078 -27.88912,-8.1021 -50.40978,-16.2687 -55.87302,-20.2608 -2.09524,-1.5311 -10.09524,-5.548 -17.77778,-8.9263 -7.68254,-3.3784 -16.69381,-8.1796 -20.02504,-10.6693 -3.33123,-2.4897 -7.08091,-4.5268 -8.33262,-4.5268 -4.3808,0 -55.62603,-36.2871 -66.7948,-47.2979 -6.20086,-6.1131 -12.28701,-11.1148 -13.52475,-11.1148 -2.45836,0 -48.49818,-48.42134 -61.57671,-64.76191 -14.37623,-17.96193 -29.2592,-41.09663 -40.84561,-63.49206 -4.33595,-8.38095 -9.30042,-16.95238 -11.03218,-19.04762 -3.40996,-4.12572 -16.85212,-35.93831 -24.68183,-58.4127 -27.00546,-77.5166 -33.45343,-164.9231 -17.80267,-241.32706 9.80305,-47.85666 29.75688,-104.0492 47.27294,-133.12671 4.99912,-8.29879 9.0893,-16.05691 9.0893,-17.24028 0,-2.0866 20.9646,-33.24904 39.75939,-59.09961 5.07787,-6.98412 24.88018,-28.12698 44.00516,-46.98412 31.95774,-31.51018 44.20302,-41.21725 83.8545,-66.47312 25.05041,-15.95576 76.26502,-40.82499 92.69842,-45.01329 5.5873,-1.42401 16.44444,-4.46999 24.12698,-6.76885 7.68254,-2.29886 18.58146,-4.98509 24.21986,-5.96941 5.63838,-0.98432 11.56267,-2.59997 13.16511,-3.59033 5.92581,-3.66235 63.96002,-9.28769 95.94837,-9.30042 35.1205,-0.014 74.39835,3.6157 85.39454,7.89133 3.66542,1.42522 12.80828,3.58947 20.31746,4.80945 27.15479,4.4117 58.63144,14.46288 78.41498,25.03961 4.88889,2.61371 12.16366,5.52579 16.16613,6.47128 7.1041,1.67818 26.8066,12.29294 54.94499,29.60171 39.40722,24.24055 93.87012,74.8116 125.61152,116.63537 9.0108,11.87302 18.1715,23.87302 20.357,26.66667 6.0334,7.71217 34.358,59.58359 38.8305,71.11111 2.1678,5.5873 4.7287,11.30159 5.6908,12.69841 0.9621,1.39683 4.8568,12.8254 8.6549,25.39683 3.7981,12.57143 8.3962,27.42857 10.2181,33.01587 15.4045,47.24252 21.6599,108.13339 16.5673,161.26984 -2.6529,27.68051 -17.343,95.24092 -22.7716,104.72745 -1.388,2.42549 -2.5236,6.44241 -2.5236,8.9265 0,2.48409 -2.2857,8.78115 -5.0794,13.9935 -2.7936,5.21236 -5.0793,10.85369 -5.0793,12.53628 0,4.66059 -29.5299,63.55753 -34.7658,69.34009 -2.5296,2.79365 -7.5272,9.65079 -11.1056,15.23809 -17.4009,27.16884 -25.9838,39.0557 -35.9596,49.80165 -5.9771,6.43853 -14.9687,16.15282 -19.9813,21.5873 -5.0126,5.43449 -16.9229,16.73804 -26.4673,25.11895 -9.5444,8.381 -19.1992,16.9941 -21.455,19.1403 -2.2558,2.1462 -8.6312,6.6573 -14.1676,10.0247 -5.5363,3.3673 -10.6375,6.7542 -11.3359,7.5264 -4.1688,4.6088 -33.17857,22.9912 -36.2832,22.9912 -2.05141,0 -5.15254,1.7143 -6.89143,3.8095 -1.7389,2.0952 -4.29598,3.8095 -5.68239,3.8095 -1.38644,0 -14.67507,5.8789 -29.53031,13.0643 -14.85524,7.1853 -32.72381,14.6932 -39.70794,16.6841 -53.30077,15.1944 -76.16957,20.6606 -92.69841,22.1573 -21.58045,1.9541 -76.22588,3.1874 -93.96826,2.1208 z m 135.87302,-37.9733 c 72.80401,-17.9312 144.59447,-54.3035 192.88842,-97.72591 21.9799,-19.76267 52.191,-53.43139 52.191,-58.16417 0,-1.09757 2.68,-5.22616 5.9557,-9.17457 8.8938,-10.72054 25.6537,-44.67409 35.5109,-71.94091 14.6083,-40.40957 22.0957,-89.77892 19.0659,-125.71428 -2.475,-29.35421 -3.7771,-40.13402 -5.3685,-44.44445 -3.449,-9.34179 -4.3028,-17.77778 -1.7994,-17.77778 1.4673,0 3.0662,1.42857 3.5532,3.17461 2.7886,9.99829 10.1373,34.5649 11.9653,40 1.9667,5.84726 4.6271,53.12294 4.8593,86.3492 l 0.098,13.96826 6.5136,-13.96826 c 11.1909,-23.9987 12.7613,-28.61775 17.269,-50.79365 9.6793,-47.61783 10.8099,-106.52894 2.6341,-137.251 -2.0287,-7.62306 -3.702,-16.50232 -3.7186,-19.73168 -0.018,-3.22933 -2.9971,-12.37219 -6.6235,-20.31746 -3.6263,-7.94524 -9.3406,-20.47713 -12.6984,-27.84866 -3.3578,-7.3715 -6.1278,-14.22865 -6.1556,-15.2381 -0.05,-1.8032 -7.3676,-13.17719 -30.7938,-47.86146 -23.8087,-35.25054 -93.1722,-92.38656 -112.1579,-92.38656 -1.9372,0 -6.1935,-2.31683 -9.4584,-5.14852 -3.265,-2.8317 -8.86843,-5.74817 -12.45213,-6.48109 -3.58367,-0.73291 -9.94435,-3.00935 -14.13483,-5.05877 -12.71378,-6.21788 -40.06365,-13.74784 -50.00884,-13.76841 -9.54895,-0.0203 -14.87914,-3.53239 -8.86324,-5.84091 3.50959,-1.34675 15.64224,0.12215 22.04668,2.66913 2.09524,0.83324 7.80953,1.80411 12.69842,2.15746 8.5811,0.62021 23.23591,4.98773 53.96384,16.08266 13.8167,4.98883 39.672,19.19952 42.6478,23.44026 0.7554,1.07654 6.1651,3.64795 12.0216,5.71423 11.7149,4.13329 30.6108,19.03566 65.1316,51.36653 12.4595,11.66916 23.5031,21.21664 24.5413,21.21664 1.8798,0 -0.7891,-9.6314 -6.6857,-24.12699 -1.7046,-4.19048 -4.6502,-12.19048 -6.5457,-17.77778 -3.0109,-8.87499 -17.2028,-31.98727 -29.8394,-48.59497 -2.2683,-2.98118 -5.8385,-8.02451 -7.9338,-11.20739 -2.0952,-3.18288 -8.5566,-10.69933 -14.3586,-16.70321 -5.802,-6.00386 -10.9449,-11.87393 -11.4286,-13.0446 -1.3676,-3.30997 -46.7249,-43.78316 -49.0667,-43.78316 -0.6859,0 -8.9388,-4.70789 -18.3399,-10.46197 -9.40105,-5.75408 -21.64931,-12.06959 -27.21832,-14.03444 -5.56902,-1.96487 -15.32595,-6.51091 -21.68206,-10.1023 -17.25991,-9.7524 -37.62883,-14.55373 -91.55657,-21.58165 -28.96483,-3.77472 -85.34606,1.09213 -110.4762,9.53634 -9.77777,3.28553 -19.55573,5.98165 -21.72881,5.99139 -2.17308,0.01 -7.82367,2.87485 -12.5569,6.36691 -4.73323,3.49207 -10.38382,6.36844 -12.5569,6.39193 -5.40945,0.0584 -37.53605,16.23705 -43.6283,21.97066 -2.71939,2.55932 -6.87273,6.65329 -9.22971,9.09773 -2.35695,2.44445 -6.31708,4.44445 -8.80031,4.44445 -2.48322,0 -4.51494,1.14285 -4.51494,2.53968 0,1.39682 -1.42857,2.50357 -3.1746,2.45943 -2.97636,-0.0752 4.57795,-7.33801 17.8851,-17.19487 3.20191,-2.37171 10.05905,-8.38385 15.2381,-13.36033 5.17907,-4.97651 16.27362,-12.23622 24.65457,-16.13268 8.38096,-3.89648 20.95239,-9.77037 27.93651,-13.05309 6.98413,-3.28272 16.12699,-6.73041 20.31746,-7.66154 4.19048,-0.93112 10.16173,-3.27877 13.26941,-5.217 9.89778,-6.17309 43.75835,-9.60851 91.51838,-9.28526 25.50629,0.17262 45.84721,-0.54022 45.20206,-1.58412 -4.74161,-7.67207 -72.63048,-23.09753 -101.65438,-23.09753 -18.23858,0 -87.47215,9.85741 -104.20848,14.8371 -10.51322,3.12809 -31.51289,13.20723 -33.19815,15.934 -0.76302,1.23463 -3.22989,2.24478 -5.48193,2.24478 -2.25201,0 -5.89884,1.52606 -8.10408,3.39125 -2.20523,1.86519 -8.0095,4.95102 -12.89838,6.8574 -11.33473,4.41989 -31.39333,18.12394 -44.44445,30.36453 -5.5873,5.24028 -12.21123,10.6066 -14.71982,11.92513 -6.63025,3.4849 -39.21318,41.23731 -43.63749,50.56081 -2.07416,4.37095 -5.57242,9.44208 -7.77394,11.26918 -14.30626,11.87315 -41.48051,88.48932 -41.85674,118.01265 -0.16863,13.22489 -5.49478,35.21654 -12.20109,50.37727 -2.93473,6.63444 -6.07711,16.01367 -6.98304,20.84269 -2.25386,12.01415 -4.99636,11.01133 -8.55692,-3.12891 -12.40971,-49.28335 0.44396,-113.96693 34.42374,-173.23109 7.52744,-13.12861 13.68625,-24.56559 13.68625,-25.41552 0,-2.62676 27.62512,-33.59992 46.66334,-52.3187 16.23525,-15.96285 23.88087,-22.29191 36.79515,-30.45907 2.20871,-1.39683 12.28041,-7.96684 22.38151,-14.60002 10.10113,-6.63318 30.08826,-17.06825 44.4158,-23.18903 14.32757,-6.12078 26.53603,-12.58641 27.12991,-14.36806 1.49752,-4.49255 -29.94604,-1.45145 -51.03747,4.93615 -8.72962,2.64379 -22.15776,6.14394 -29.8403,7.7781 -7.68254,1.63416 -16.25397,3.88278 -19.04762,4.99691 -14.04968,5.60317 -76.38751,36.64551 -77.68353,38.68404 -0.82118,1.29163 -4.99096,4.29504 -9.26619,6.67421 -15.51982,8.63688 -27.62534,17.85699 -41.8847,31.90128 -8.00177,7.8811 -15.57838,14.32927 -16.83692,14.32927 -3.7633,0 -25.32391,27.49412 -47.7982,60.95239 -32.49318,48.37374 -49.118,106.50222 -49.37379,172.63492 -0.13257,34.24338 4.94588,76.10504 10.48896,86.46237 4.53522,8.47411 1.48719,11.5278 -3.66212,3.66896 -5.48851,-8.37651 -10.27378,-24.23287 -16.83439,-55.78213 -3.89191,-18.7157 -4.49671,-29.52944 -3.33803,-59.68254 l 1.41511,-36.82539 -5.29478,7.61904 c -2.91212,4.19048 -5.30232,9.04762 -5.31151,10.79366 -0.0102,1.74603 -0.89976,3.1746 -1.979,3.1746 -2.08112,0 -6.03177,13.5553 -11.84295,40.63492 -1.94839,9.07936 -4.79875,19.76884 -6.33412,23.75439 -1.59101,4.13 -2.9152,25.9747 -3.07903,50.79365 -0.32036,48.53257 4.98059,83.37658 16.5407,108.72452 3.39946,7.45407 9.83167,21.55284 14.29379,31.33062 7.354,16.11469 21.74417,41.25986 25.43487,44.44444 0.80942,0.69841 6.92475,8.42702 13.58963,17.17471 15.20094,19.95131 43.05133,47.96358 49.82329,50.11291 2.81786,0.89435 5.12338,2.47152 5.12338,3.50481 0,3.16224 31.74377,25.39546 46.12465,32.30553 7.45684,3.58303 16.41504,8.05354 19.9071,9.93442 5.19827,2.7999 22.57747,9.85532 55.87302,22.68265 2.09524,0.80721 -2.47619,0.90956 -10.15873,0.22755 -16.7533,-1.48747 -48.95592,-9.39655 -53.72699,-13.19553 -1.87873,-1.49595 -7.94197,-4.17966 -13.47385,-5.96381 -5.53189,-1.78415 -16.04841,-7.07596 -23.37006,-11.75957 -7.32165,-4.68371 -13.92638,-8.51573 -14.67716,-8.51573 -4.53071,0 -32.89577,-22.86956 -52.3074,-42.17326 -12.49321,-12.42377 -27.01123,-26.86621 -32.26227,-32.09437 -5.25105,-5.22814 -10.34289,-9.51386 -11.31523,-9.52381 -2.50133,-0.0256 4.85821,24.21955 12.00919,39.56284 6.21364,13.33209 29.57672,49.26959 49.38865,75.97049 25.92508,34.93974 90.16696,90.50058 120.34058,104.07888 4.38128,1.9716 10.82311,5.2383 14.31517,7.2593 13.20442,7.642 47.47574,21.8568 59.68254,24.7546 6.98413,1.6581 13.78413,4.0021 15.11111,5.209 1.32699,1.2069 6.66324,2.1944 11.85837,2.1944 5.19512,0 16.65064,1.8458 25.45668,4.1018 23.75729,6.0864 85.12082,6.1257 117.73258,0.075 34.28843,-6.3613 51.15045,-11.1044 64.7619,-18.2164 6.28572,-3.2844 20,-9.9553 30.47619,-14.8244 10.47619,-4.869 24.89941,-13.2238 32.05161,-18.566 7.15218,-5.3423 17.43789,-13.0567 22.85714,-17.143 10.50317,-7.92 49.21824,-47.12645 49.21824,-49.84297 0,-0.89092 2.89214,-4.94047 6.427,-8.99901 7.3075,-8.39009 29.12856,-45.17056 29.12856,-49.09765 0,-1.42453 2.19347,-7.47779 4.87441,-13.45166 8.92724,-19.89249 15.52794,-45.34321 16.86684,-65.03456 2.7048,-39.78055 3.4763,-44.62644 9.2167,-57.89387 3.2271,-7.45841 7.1474,-13.58027 8.7118,-13.60409 7.9714,-0.12139 9.9293,77.87096 2.7404,109.163 -4.061,17.67693 -11.1683,37.39444 -17.8511,49.52381 -1.5392,2.79365 -5.1232,9.68528 -7.9645,15.31477 -16.85637,33.39774 -65.71303,88.50723 -95.02625,107.18793 -7.84671,5.0005 -17.48323,11.286 -21.4145,13.9678 -15.0016,10.2335 -56.96221,29.4911 -70.94746,32.5609 -8.03174,1.763 -14.60317,4.0746 -14.60317,5.1369 0,1.0623 -5.71429,3.8294 -12.69842,6.1492 -6.98412,2.3197 -12.69841,4.7496 -12.69841,5.3997 0,2.3634 52.46603,-2.2005 67.30159,-5.8545 z m -204.87701,-58.022 c -13.50776,-1.8426 -26.86118,-4.582 -29.67431,-6.0875 -2.8131,-1.5055 -7.26819,-2.7373 -9.90014,-2.7373 -6.6303,0 -31.8909,-7.6788 -30.34524,-9.2245 0.69292,-0.6929 14.80566,0.4446 31.36162,2.5278 33.18019,4.175 79.90634,3.7229 108.51658,-1.0499 39.11151,-6.5248 101.67507,-30.54224 120.40371,-46.22168 4.7392,-3.96762 11.32066,-6.94293 15.23809,-6.88876 6.8898,0.0952 6.88701,0.10286 -3.26298,8.8659 -17.48374,15.09461 -50.25252,35.98294 -63.42979,40.43324 -6.9499,2.3471 -13.88229,5.3016 -15.40536,6.5656 -1.52308,1.2641 -9.55109,3.0631 -17.84005,3.9979 -8.28897,0.9348 -18.04069,3.1952 -21.67051,5.023 -4.96612,2.5007 -56.97486,9.9041 -59.06623,8.4081 -0.20115,-0.144 -11.41763,-1.7693 -24.92539,-3.6119 z m 69.00399,-120.52184 c -33.18987,-3.55767 -93.40348,-28.25242 -117.55213,-48.21036 -8.95677,-7.40242 -38.65844,-37.51183 -46.2574,-46.8924 -15.11177,-18.65478 -30.64696,-51.187 -44.866,-93.95383 -15.88381,-47.77399 -14.72597,-135.68696 2.36076,-179.2464 1.3698,-3.49206 3.86062,-10.92064 5.53519,-16.50794 8.59164,-28.66704 32.85445,-67.21658 60.56284,-96.2243 9.78951,-10.24856 43.31739,-36.29544 54.73572,-42.52267 23.13402,-12.61664 60.63698,-23.74131 93.10007,-27.61671 29.15119,-3.48003 92.24097,0.91944 107.93651,7.52675 2.79365,1.17606 14.22222,5.22263 25.39683,8.99241 11.1746,3.7698 22.60317,8.76183 25.39682,11.09341 8.50118,7.09511 21.26034,15.57651 23.43284,15.57651 2.60218,0 29.15022,22.81707 32.141,27.624 1.23228,1.9806 5.518,7.03065 9.52381,11.22235 4.00582,4.19169 7.2833,8.32061 7.2833,9.17531 0,0.85473 2.73712,4.50591 6.08247,8.1137 8.95952,9.66246 21.85404,40.78896 21.85404,52.75421 v 10.26042 l -18.4127,5.37047 c -10.12698,2.95375 -26.98412,8.25097 -37.46031,11.7716 -10.47619,3.52066 -26.16704,7.02121 -34.86852,7.77905 -13.94256,1.21425 -16.0076,0.8094 -17.39348,-3.41013 -5.24589,-15.97196 -17.81818,-37.28579 -28.38664,-48.12386 -24.15947,-24.7758 -55.06873,-34.75254 -100.4305,-32.41644 -28.00503,1.44224 -40.04785,5.0429 -58.77979,17.57451 -8.15865,5.45813 -17.32264,11.52881 -20.36444,13.49041 -3.04178,1.96157 -7.29649,6.533 -9.45489,10.15873 -2.15842,3.6257 -8.02148,13.2881 -13.02905,21.47203 -16.64602,27.20472 -24.9068,61.97203 -24.86616,104.65457 0.0353,37.14774 3.06034,57.46068 12.83764,86.20681 9.4545,27.79703 18.09386,42.48554 34.34093,58.38575 23.34461,22.84628 53.08236,34.24676 89.39611,34.27155 53.24437,0.0363 87.54479,-21.57171 113.8335,-71.71119 13.19348,-25.1634 15.67129,-28.11624 21.60973,-25.75269 2.09524,0.83393 10.26961,3.0684 18.16528,4.96549 7.89567,1.89709 19.32424,5.7122 25.39683,8.47799 6.07258,2.76579 17.89821,6.92231 26.27916,9.2367 14.08196,3.88869 29.251,8.93704 29.17359,9.70916 -0.0178,0.17981 -2.19363,7.21772 -4.83469,15.63997 -5.37456,17.13918 -12.07538,29.47332 -26.1744,48.1789 -5.26416,6.98413 -9.65806,14.4127 -9.76419,16.50793 -0.22604,4.46065 -35.7263,36.44089 -46.75503,42.11894 -4.1586,2.14103 -8.1586,4.7954 -8.88889,5.89859 -2.68955,4.06286 -35.03405,23.09359 -39.24972,23.09359 -2.39642,0 -12.55863,2.74966 -22.58268,6.11035 -10.02408,3.36068 -25.00691,7.36068 -33.29519,8.88889 -16.26342,2.99865 -56.12478,3.13739 -82.70817,0.28787 z M 525.7143,870.91389 c -23.7116,-4.83131 -72.06121,-26.7821 -86.34921,-39.20259 -4.88889,-4.24991 -14.03175,-11.82842 -20.31746,-16.84117 -6.28572,-5.01272 -16.45097,-15.41636 -22.58949,-23.11919 -11.82374,-14.83687 -26.77541,-40.04688 -23.68975,-39.94331 1.00914,0.0338 6.97765,4.02352 13.26336,8.86588 6.28572,4.84233 14.28572,10.73709 17.77778,13.0994 3.49207,2.36231 9.20635,6.82441 12.69842,9.91573 11.14742,9.86825 39.77539,26.02888 60.88914,34.37227 19.3311,7.63893 26.0675,12.90443 40.55063,31.69626 1.17547,1.52515 5.84162,6.99212 10.36924,12.14877 4.52762,5.15667 7.79424,9.70052 7.25913,10.09742 -0.53509,0.3969 -4.9729,-0.0935 -9.86179,-1.08947 z m 552.3254,-39.16785 c 1.8809,-33.94062 -3.4949,-92.57722 -10.4346,-113.81531 -6.156,-18.83983 -2.3193,-16.93075 7.5419,3.75268 11.8749,24.90707 17.9504,57.7216 15.6755,84.66581 -2.3812,28.20431 -5.5994,43.79045 -10.3882,50.31197 -3.8037,5.17991 -3.9678,3.47228 -2.3946,-24.91515 z m -20.1534,-138.23721 c -0.8037,-1.30031 -0.2997,-3.08205 1.1199,-3.95941 1.4196,-0.87736 2.5811,0.18641 2.5811,2.36419 0,4.46103 -1.5239,5.11786 -3.701,1.59522 z m 76.5586,-35.82125 c -6.2266,-8.88968 -5.3536,-14.65024 0.9967,-6.57712 2.9056,3.69386 4.8344,8.06169 4.2862,9.70626 -0.5785,1.73544 -2.7953,0.4224 -5.2829,-3.12914 z M 405.73024,570.79513 c -5.03697,-9.63611 -12.40259,-31.15931 -11.68243,-34.1375 0.27321,-1.12995 -0.42563,-11.0782 -1.55302,-22.1072 -1.29948,-12.71241 -0.97666,-28.05173 0.88188,-41.90476 3.35286,-24.99134 8.1169,-45.979 10.43688,-45.979 0.87088,0 1.51299,28.85714 1.42689,64.12699 -0.13994,57.3235 0.32038,64.82925 4.33874,70.74636 3.06596,4.51469 3.85476,8.35083 2.48082,12.06494 -1.90913,5.16089 -2.24005,5.01399 -6.32976,-2.80983 z m 700.10966,-14.15464 c -25.9454,-24.00874 -31.1749,-28.38652 -33.9096,-28.38652 -2.687,0 -12.7988,-4.99548 -15.4223,-7.61904 -0.6985,-0.69842 -5.2699,-3.31673 -10.1588,-5.81847 -25.5673,-13.08327 -31.6188,-18.88238 -43.0695,-41.27294 -5.54591,-10.84444 -9.49042,-20.67675 -8.7656,-21.84955 0.72485,-1.1728 5.7816,0.14477 11.2372,2.92811 5.4557,2.78326 11.5123,5.06046 13.4592,5.06046 1.947,0 6.32,2.57143 9.7179,5.71429 3.3979,3.14286 9.5351,7.90837 13.6382,10.59005 16.7168,10.92568 43.8527,36.19365 48.4836,45.14615 1.9481,3.76602 6.3603,9.88841 9.805,13.60531 5.7553,6.21003 19.9334,31.66885 18.4581,33.14416 -0.3501,0.35012 -6.4131,-4.7088 -13.4734,-11.24201 z M 764.44446,316.44135 c 0,-2.59106 18.67871,-11.65674 23.63723,-11.47228 4.61494,0.17168 4.15492,0.82565 -2.68485,3.81681 -4.53968,1.9853 -8.25397,4.74923 -8.25397,6.14205 0,1.39281 -2.85714,2.53239 -6.3492,2.53239 -3.49207,0 -6.34921,-0.45854 -6.34921,-1.01897 z"
         id="path154" />
      <path
         style="fill:#3875b1;stroke-width:2.53968"
         d="m 371.42858,1382.2223 c 204.98413,-0.3585 540.41271,-0.3585 745.39682,0 204.9842,0.3585 37.2699,0.6518 -372.6984,0.6518 -409.96826,0 -577.68255,-0.2933 -372.69842,-0.6518 z m -19.69153,-151.1112 c 3.38583,-30.5434 19.73653,-46.6647 49.10298,-48.414 7.25164,-0.432 14.15449,-1.8584 15.33969,-3.1698 1.18519,-1.3114 10.43611,-23.5273 20.55758,-49.3686 10.1215,-25.8412 19.18182,-47.8269 20.13407,-48.8569 0.95226,-1.03 9.68861,2.841 19.41413,8.6022 60.63253,35.9177 127.29067,59.5102 196.63063,69.5941 41.34867,6.0132 122.15934,4.1202 161.3696,-3.78 56.14502,-11.3124 123.89339,-37.589 168.34117,-65.292 10.2436,-6.3846 19.3307,-10.9024 20.1935,-10.0396 0.8628,0.8628 10.2506,23.5574 20.8619,50.4324 l 19.2932,48.8637 13.258,1.6254 c 21.0342,2.5787 25.4949,4.2908 36.0698,13.8446 10.6368,9.6097 13.9746,17.3283 16.6482,38.4982 l 1.6839,13.3333 H 740.30643 349.97748 Z m 769.85015,10.2802 c 3.2815,-5.3095 0.8761,-23.0578 -4.3962,-32.4387 -7.1552,-12.731 -19.2981,-20.3812 -32.3503,-20.3812 -15.6831,0 -27.2774,-5.608 -29.4443,-14.2417 -0.9896,-3.9432 -3.8988,-11.7804 -6.4647,-17.4162 -5.8919,-12.9407 -14.1988,-33.7942 -21.2802,-53.4214 -4.9058,-13.5973 -6.1712,-15.1421 -11.7513,-14.3464 -3.4394,0.4905 -9.352,3.4989 -13.139,6.6854 -9.5993,8.0774 -65.77855,35.0458 -87.20562,41.8625 -9.77778,3.1107 -24.0635,7.7487 -31.74604,10.3069 -7.68254,2.5581 -26.53968,7.7921 -41.90476,11.6311 -26.82222,6.7016 -30.62095,6.9874 -95.2381,7.1663 -70.40046,0.1947 -79.81232,-0.7464 -126.98413,-12.6994 -39.69016,-10.0573 -49.43177,-13.0155 -66.37178,-20.155 -8.89235,-3.7478 -19.83345,-8.197 -24.31358,-9.8872 -4.4801,-1.6902 -10.34494,-5.0633 -13.03294,-7.496 -2.688,-2.4326 -8.73673,-5.4859 -13.44162,-6.7852 -4.70492,-1.2993 -14.84008,-6.4221 -22.52262,-11.3842 -17.79286,-11.4922 -22.63378,-10.8298 -28.00008,3.8313 -2.30072,6.2857 -5.02679,13.7143 -6.05795,16.508 -1.03116,2.7936 -5.7006,14.2387 -10.37651,25.4334 -4.67591,11.1947 -9.26522,23.3963 -10.19848,27.1146 -2.56429,10.217 -9.27751,14.7489 -24.38374,16.4609 -26.176,2.9665 -41.57766,15.9602 -44.54052,37.5768 -2.8637,20.8928 -40.44349,19.0257 383.9964,19.0785 292.46277,0.036 379.69437,-0.651 381.14807,-3.0031 z M 702.22224,1132.5553 C 552.56829,1122.1855 405.26091,1030.9694 325.12432,899.04763 237.754,755.21758 230.24644,579.8603 305.0634,430.4762 344.24638,352.24102 405.61695,283.0737 476.57342,237.1769 c 45.63939,-29.52095 95.72061,-50.88851 150.99012,-64.42115 44.62398,-10.9261 71.84453,-13.52235 127.27132,-12.13894 40.55469,1.01223 54.43261,2.40337 80.72071,8.09156 100.15754,21.67198 182.22743,66.39413 250.34533,136.42017 70.5223,72.4977 110.4613,148.7294 132.2009,252.33178 6.2213,29.64841 6.9464,38.45562 7.1096,86.34921 0.1984,58.20643 -2.4646,79.12394 -16.7265,131.38708 -42.7001,156.4756 -163.1572,282.95079 -318.69306,334.61529 -41.60902,13.8213 -72.4608,19.9188 -115.73399,22.8736 -19.95404,1.3625 -37.99434,2.3261 -40.08958,2.1414 -2.09524,-0.1846 -16.38095,-1.2069 -31.74603,-2.2716 z m 97.77778,-6.3639 c 16.52884,-1.4967 39.39764,-6.9629 92.69841,-22.1573 6.98413,-1.9909 24.8527,-9.4988 39.70794,-16.6841 14.85524,-7.1854 28.14387,-13.0643 29.53031,-13.0643 1.38641,0 3.94349,-1.7143 5.68239,-3.8095 1.73889,-2.0952 4.84002,-3.8095 6.89143,-3.8095 3.10463,0 32.1144,-18.3824 36.2832,-22.9912 0.6984,-0.7722 5.7996,-4.1591 11.3359,-7.5264 5.5364,-3.3674 11.9118,-7.8785 14.1676,-10.0247 2.2558,-2.1462 11.9106,-10.7593 21.455,-19.1403 9.5444,-8.38091 21.4547,-19.68446 26.4673,-25.11895 5.0126,-5.43448 14.0042,-15.14877 19.9813,-21.5873 9.9758,-10.74595 18.5587,-22.63281 35.9596,-49.80165 3.5784,-5.5873 8.576,-12.44444 11.1056,-15.23809 5.2359,-5.78256 34.7658,-64.6795 34.7658,-69.34009 0,-1.68259 2.2857,-7.32392 5.0793,-12.53628 2.7937,-5.21235 5.0794,-11.50941 5.0794,-13.9935 0,-2.48409 1.1356,-6.50101 2.5236,-8.9265 5.4286,-9.48653 20.1187,-77.04694 22.7716,-104.72745 5.0926,-53.13645 -1.1628,-114.02732 -16.5673,-161.26984 -1.8219,-5.5873 -6.42,-20.44444 -10.2181,-33.01587 -3.7981,-12.57143 -7.6928,-24 -8.6549,-25.39683 -0.9621,-1.39682 -3.523,-7.11111 -5.6908,-12.69841 -4.4725,-11.52752 -32.7971,-63.39894 -38.8305,-71.11111 -2.1855,-2.79365 -11.3462,-14.79365 -20.357,-26.66667 -31.7414,-41.82377 -86.2043,-92.39482 -125.61152,-116.63537 -28.13839,-17.30877 -47.84089,-27.92353 -54.94499,-29.60171 -4.00247,-0.94549 -11.27724,-3.85757 -16.16613,-6.47128 -19.78354,-10.57673 -51.26019,-20.62791 -78.41498,-25.03961 -7.50918,-1.21998 -16.65204,-3.38423 -20.31746,-4.80945 -10.99619,-4.27563 -50.27404,-7.9053 -85.39454,-7.89133 -31.98835,0.0127 -90.02256,5.63807 -95.94837,9.30042 -1.60244,0.99036 -7.52673,2.60601 -13.16511,3.59033 -5.6384,0.98432 -16.53732,3.67055 -24.21986,5.96941 -7.68254,2.29886 -18.53968,5.34484 -24.12698,6.76885 -16.4334,4.1883 -67.64801,29.05753 -92.69842,45.01329 -39.65148,25.25587 -51.89676,34.96294 -83.8545,66.47312 -19.12498,18.85714 -38.92729,40 -44.00516,46.98412 -18.79479,25.85057 -39.75939,57.01301 -39.75939,59.09961 0,1.18337 -4.09018,8.94149 -9.0893,17.24028 -17.51606,29.07751 -37.46989,85.27005 -47.27294,133.12671 -15.65076,76.40396 -9.20279,163.81046 17.80267,241.32706 7.82971,22.47439 21.27187,54.28698 24.68183,58.4127 1.73176,2.09524 6.69623,10.66667 11.03218,19.04762 11.58641,22.39543 26.46938,45.53013 40.84561,63.49206 13.07853,16.34057 59.11835,64.76191 61.57671,64.76191 1.23774,0 7.32389,5.0017 13.52475,11.1148 11.16877,11.0108 62.414,47.2979 66.7948,47.2979 1.25171,0 5.00139,2.0371 8.33262,4.5268 3.33123,2.4897 12.3425,7.2909 20.02504,10.6693 7.68254,3.3783 15.68254,7.3952 17.77778,8.9263 5.46324,3.9921 27.9839,12.1587 55.87302,20.2608 13.26984,3.8551 26.71096,7.9986 29.86915,9.2078 7.07106,2.7073 52.73786,9.4533 71.71815,10.5942 17.74238,1.0666 72.38781,-0.1668 93.96826,-2.1208 z m -25.39683,-29.998 c 0,-0.6501 5.71429,-3.08 12.69841,-5.3997 6.98413,-2.3198 12.69842,-5.0869 12.69842,-6.1492 0,-1.0623 6.57143,-3.3739 14.60317,-5.1369 13.98525,-3.0698 55.94586,-22.3274 70.94746,-32.5609 3.93127,-2.6818 13.56779,-8.9673 21.4145,-13.9678 29.31322,-18.6807 78.16988,-73.79019 95.02625,-107.18793 2.8413,-5.62949 6.4253,-12.52112 7.9645,-15.31477 6.6828,-12.12937 13.7901,-31.84688 17.8511,-49.52381 7.1889,-31.29204 5.231,-109.28447 -2.7404,-109.163 -1.5644,0.0229 -5.4847,6.14568 -8.7118,13.60409 -5.7404,13.26743 -6.5119,18.11332 -9.2167,57.89387 -1.3389,19.69135 -7.9396,45.14207 -16.86684,65.03456 -2.68094,5.97387 -4.87441,12.02713 -4.87441,13.45166 0,3.92709 -21.82106,40.70756 -29.12856,49.09765 -3.53486,4.05854 -6.427,8.10809 -6.427,8.99901 0,2.71652 -38.71507,41.92297 -49.21824,49.84287 -5.41925,4.0864 -15.70496,11.8007 -22.85714,17.143 -7.1522,5.3422 -21.57542,13.697 -32.05161,18.5661 -10.47619,4.869 -24.19047,11.54 -30.47619,14.8243 -13.61145,7.1121 -30.47347,11.8551 -64.7619,18.2164 -32.61176,6.0503 -93.97529,6.011 -117.73258,-0.075 -8.80604,-2.256 -20.26156,-4.1018 -25.45668,-4.1018 -5.19513,0 -10.53138,-0.9875 -11.85837,-2.1944 -1.32698,-1.2069 -8.12698,-3.5509 -15.11111,-5.209 -12.2068,-2.8978 -46.47812,-17.1126 -59.68254,-24.7546 -3.49206,-2.021 -9.93389,-5.2877 -14.31517,-7.2593 -30.17362,-13.5783 -94.4155,-69.13914 -120.34058,-104.07888 -19.81193,-26.7009 -43.17501,-62.6384 -49.38865,-75.97049 -7.15098,-15.34329 -14.51052,-39.58844 -12.00919,-39.56284 0.97234,0.0102 6.06418,4.29567 11.31523,9.52381 5.25104,5.22816 19.76906,19.6706 32.26227,32.09437 19.41163,19.3037 47.77669,42.17326 52.3074,42.17326 0.75078,0 7.35551,3.83202 14.67716,8.51563 7.32165,4.68361 17.83817,9.97542 23.37006,11.75957 5.53188,1.78415 11.59512,4.46786 13.47385,5.96381 4.77107,3.79898 36.97369,11.70806 53.72699,13.19553 7.68254,0.68211 12.25397,0.57976 10.15873,-0.22756 -33.29555,-12.82732 -50.67475,-19.88274 -55.87302,-22.68264 -3.49206,-1.88089 -12.45026,-6.35139 -19.9071,-9.93442 -14.38088,-6.90997 -46.12465,-29.14319 -46.12465,-32.30543 0,-1.03329 -2.30552,-2.61046 -5.12338,-3.50481 -6.77196,-2.14933 -34.62235,-30.1616 -49.82329,-50.11291 -6.66488,-8.74769 -12.78021,-16.4763 -13.58963,-17.17471 -3.6907,-3.18458 -18.08087,-28.32975 -25.43487,-44.44444 -4.46212,-9.77778 -10.89433,-23.87655 -14.29379,-31.33062 -11.56011,-25.34794 -16.86106,-60.19195 -16.5407,-108.72452 0.16381,-24.81895 1.48802,-46.66365 3.07903,-50.79365 1.53537,-3.98555 4.38573,-14.67503 6.33412,-23.75439 5.81118,-27.07962 9.76183,-40.63492 11.84295,-40.63492 1.07924,0 1.9698,-1.42857 1.979,-3.1746 0.0102,-1.74604 2.39939,-6.60318 5.31151,-10.79366 l 5.29478,-7.61904 -1.41511,36.82539 c -1.15868,30.1531 -0.55388,40.96684 3.33803,59.68254 6.56061,31.54926 11.34588,47.40562 16.83439,55.78213 5.14931,7.85884 8.19734,4.80515 3.66212,-3.66896 -5.54308,-10.35733 -10.62143,-52.21899 -10.48896,-86.46237 0.25579,-66.1327 16.88061,-124.26118 49.37379,-172.63492 22.47429,-33.45827 44.0349,-60.95239 47.7982,-60.95239 1.25854,0 8.83515,-6.44817 16.83692,-14.32927 14.25936,-14.04429 26.36488,-23.2644 41.8847,-31.90128 4.27523,-2.37917 8.44501,-5.38258 9.26619,-6.67421 1.29602,-2.03853 63.63385,-33.08087 77.68353,-38.68404 2.79365,-1.11413 11.36508,-3.36275 19.04762,-4.99691 7.68254,-1.63416 21.11068,-5.13431 29.8403,-7.7781 21.09143,-6.3876 52.53499,-9.4287 51.03747,-4.93615 -0.59388,1.78165 -12.80234,8.24728 -27.12991,14.36806 -14.32754,6.12078 -34.31467,16.55585 -44.4158,23.18903 -10.1011,6.63318 -20.1728,13.20319 -22.38151,14.60002 -12.91428,8.16716 -20.5599,14.49622 -36.79515,30.45907 -19.03822,18.71878 -46.66334,49.69194 -46.66334,52.3187 0,0.84993 -6.15881,12.28691 -13.68625,25.41552 -26.53318,46.27652 -41.68851,100.87162 -38.91423,140.18347 1.60437,22.73415 6.27299,44.95657 9.44472,44.95657 1.07556,0 2.69676,-3.95101 3.60269,-8.78004 0.90593,-4.82902 4.04831,-14.20825 6.98304,-20.84269 6.70631,-15.16073 12.03256,-37.15238 12.20109,-50.37727 0.37623,-29.52333 27.55048,-106.1395 41.85674,-118.01265 2.20152,-1.8271 5.69978,-6.89823 7.77394,-11.26918 4.42431,-9.3235 37.00724,-47.07591 43.63749,-50.56081 2.50859,-1.31853 9.13252,-6.68485 14.71982,-11.92513 13.05112,-12.24059 33.10972,-25.94464 44.44445,-30.36453 4.88888,-1.90638 10.69315,-4.99221 12.89838,-6.8574 2.20524,-1.86519 5.85207,-3.39125 8.10408,-3.39125 2.25204,0 4.71891,-1.01015 5.48193,-2.24478 1.68526,-2.72677 22.68493,-12.80591 33.19815,-15.934 16.73633,-4.97969 85.9699,-14.8371 104.20848,-14.8371 29.0239,0 96.91277,15.42546 101.65438,23.09753 0.64515,1.0439 -19.69577,1.75675 -45.20206,1.58412 -47.76003,-0.32325 -81.6206,3.11217 -91.51838,9.28526 -3.10768,1.93823 -9.07893,4.28588 -13.26941,5.217 -4.19047,0.93113 -13.33333,4.37882 -20.31746,7.66154 -6.98412,3.28272 -19.55555,9.15661 -27.93651,13.05309 -8.38095,3.89646 -19.4755,11.15617 -24.65457,16.13268 -5.17905,4.97648 -12.03619,10.98862 -15.2381,13.36033 -13.30715,9.85686 -20.86146,17.11962 -17.8851,17.19487 1.74603,0.0442 3.1746,-1.06261 3.1746,-2.45943 0,-1.39683 2.03172,-2.53968 4.51494,-2.53968 2.48323,0 6.44336,-2 8.80031,-4.44445 2.35698,-2.44444 6.51032,-6.53841 9.22971,-9.09773 6.09225,-5.73361 38.21885,-21.91217 43.6283,-21.97066 2.17308,-0.0229 7.82367,-2.89986 12.5569,-6.39193 4.73323,-3.49206 10.38382,-6.35717 12.5569,-6.36691 2.17308,-0.01 11.95104,-2.70586 21.72881,-5.99139 25.13014,-8.44421 81.51137,-13.31106 110.4762,-9.53634 53.92774,7.02792 74.29666,11.82925 91.55657,21.58165 6.35611,3.59139 16.11304,8.13743 21.68206,10.1023 5.56901,1.96485 17.81727,8.28036 27.21832,14.03444 9.4011,5.75408 17.654,10.46197 18.3399,10.46197 2.3418,0 47.6991,40.47319 49.0667,43.78316 0.4837,1.17067 5.6266,7.04074 11.4286,13.0446 5.802,6.00388 12.2634,13.52033 14.3586,16.70321 2.0953,3.18288 5.6655,8.22621 7.9338,11.20739 12.6366,16.6077 26.8285,39.71998 29.8394,48.59497 1.8955,5.5873 4.8411,13.5873 6.5457,17.77778 5.8966,14.49559 8.5655,24.12699 6.6857,24.12699 -1.0382,0 -12.0818,-9.54748 -24.5413,-21.21664 -34.5208,-32.33087 -53.4167,-47.23324 -65.1316,-51.36653 -5.8565,-2.06628 -11.2662,-4.63769 -12.0216,-5.71423 -2.9758,-4.24074 -28.8311,-18.45143 -42.6478,-23.44026 -30.72793,-11.09493 -45.38274,-15.46245 -53.96384,-16.08266 -4.88889,-0.35335 -10.60318,-1.32422 -12.69842,-2.15746 -6.40444,-2.54703 -18.53709,-4.01588 -22.04668,-2.66913 -6.0159,2.30852 -0.68571,5.82115 8.86324,5.84091 9.94519,0.0203 37.29506,7.55053 50.00884,13.76841 4.19048,2.04942 10.55116,4.32586 14.13483,5.05877 3.5837,0.73292 9.18713,3.64939 12.45213,6.48109 3.2649,2.83169 7.5212,5.14852 9.4584,5.14852 18.9857,0 88.3492,57.13602 112.1579,92.38656 23.4262,34.68427 30.7442,46.05826 30.7938,47.86146 0.028,1.00945 2.7979,7.8666 6.1557,15.2381 3.3578,7.37153 9.0721,19.90342 12.6984,27.84866 3.6263,7.94527 6.6069,17.08813 6.6234,20.31746 0.018,3.22936 1.69,12.10862 3.7186,19.73168 10.1525,38.14967 4.4173,131.57321 -10.2187,166.45735 -1.7582,4.19048 -4.493,10.90959 -6.0775,14.93138 -5.5431,14.06997 -4.9096,5.04731 1.096,-15.6097 16.214,-55.77047 20.4141,-114.07139 11.4033,-158.28816 -17.4398,-85.57869 -66.4299,-158.66278 -138.5037,-206.62161 -45.65261,-30.37791 -87.33827,-45.25938 -156.96365,-56.0349 -12.3748,-1.91517 -23.06301,-4.04551 -23.75157,-4.73407 -2.99045,-2.99042 20.73654,-5.35911 50.06075,-4.99761 52.39587,0.64594 99.69487,15.55065 151.35257,47.69374 22.7748,14.1712 36.6577,25.2161 56.2665,44.76422 14.3174,14.27317 26.0317,25.19571 26.0317,24.27235 0,-5.05544 -23.4089,-47.0546 -39.0578,-70.07565 -39.8419,-58.61118 -98.873,-104.71566 -164.11678,-128.17839 -34.34336,-12.35043 -63.79763,-17.35435 -102.85714,-17.47415 -86.35942,-0.26488 -152.64277,27.18521 -217.77778,90.18886 -10.8254,10.47119 -19.68254,18.224 -19.68254,17.22853 0,-3.38969 25.03916,-39.24978 34.75901,-49.78045 25.07888,-27.1709 66.70519,-52.59649 109.68444,-66.99586 29.60668,-9.91915 52.62962,-13.05807 95.55655,-13.02804 39.5712,0.0277 39.37608,-1.51707 -1.237,-9.79349 -44.74926,-9.11931 -103.71259,-4.58107 -152.27269,11.72002 -80.71363,27.09467 -154.99716,94.84467 -186.60803,170.19512 -10.92508,26.04199 -18.53483,55.90025 -21.79596,85.52036 -2.17184,19.72648 -21.98118,85.43937 -25.7841,85.53278 -8.72684,0.21435 -15.7934,-76.87381 -10.06324,-109.77875 14.01991,-80.50824 69.51253,-163.35286 139.98324,-208.98018 25.65793,-16.61261 52.39672,-31.05581 71.11111,-38.4113 l 8.88889,-3.49368 -13.1267,1.36485 c -7.21971,0.75067 -26.07686,5.18225 -41.90477,9.84796 -86.82839,25.59502 -157.76429,72.48068 -205.42791,135.77927 -66.13669,87.83132 -84.21288,194.27434 -50.24038,295.84422 4.27989,12.79594 10.01795,27.66182 12.75121,33.03528 7.8175,15.36881 3.50786,13.77732 -9.11139,-3.3647 -14.83444,-20.15119 -25.02489,-41.3086 -33.66598,-69.8973 -6.32938,-20.94049 -6.92135,-26.53061 -7.05964,-66.66565 -0.083,-24.09468 -0.28353,-43.80896 -0.44558,-43.80952 -1.88643,-0.008 -12.88132,37.20332 -17.66103,59.7698 -11.92368,56.29542 -10.04191,109.09293 5.56366,156.1022 40.21727,121.14804 137.71091,204.47223 264.63099,226.17029 15.89536,2.71746 33.35855,4.94082 38.80703,4.94082 5.44851,0 9.90636,0.99332 9.90636,2.20739 0,6.3248 -59.01727,7.28879 -92.08688,1.50416 -64.93329,-11.3583 -114.9211,-38.22423 -167.59366,-90.07312 -16.41158,-16.15497 -29.13671,-27.04673 -28.27809,-24.20396 3.30278,10.9349 22.24868,44.97554 37.30537,67.02763 78.04965,114.31177 194.85527,179.33857 321.76438,179.12927 88.72226,-0.1463 163.1122,-29.2573 225.39904,-88.20544 52.72513,-49.89892 86.81949,-122.41061 87.04959,-185.13681 0.054,-14.71873 2.073,-24.26235 10.0057,-47.29565 l 9.9381,-28.85605 3.8911,9.31264 c 6.0117,14.38809 11.655,48.16538 11.6338,69.6324 -0.1105,111.76514 -83.44022,222.70611 -201.88559,268.78031 -11.1746,4.3468 -24.88888,9.6703 -30.47619,11.83 -9.87827,3.8184 -9.94839,3.9289 -2.53968,4.0027 22.50586,0.2242 90.52061,-20.5344 130.9532,-39.968 111.48386,-53.58357 184.56286,-145.26194 203.38246,-255.14545 8.9065,-52.00262 3.9276,-102.07015 -15.3366,-154.22456 -5.4174,-14.66667 -10.6391,-28.95238 -11.6038,-31.74603 -2.9579,-8.5662 13.3522,11.2113 24.0858,29.20635 20.8716,34.99124 31.2354,81.18176 29.9613,133.53478 -0.7207,29.61275 -4.5034,47.27185 -4.5811,21.38585 -0.095,-31.62933 -2.8089,-80.4191 -4.8035,-86.3492 -1.828,-5.4351 -9.1767,-30.00171 -11.9653,-40 -0.487,-1.74604 -2.0859,-3.17461 -3.5532,-3.17461 -2.5034,0 -1.6496,8.43599 1.7994,17.77778 1.5914,4.31043 2.8935,15.09024 5.3685,44.44445 3.0298,35.93536 -4.4576,85.30471 -19.0659,125.71428 -9.8572,27.26682 -26.6171,61.22037 -35.5109,71.94091 -3.2757,3.94841 -5.9557,8.077 -5.9557,9.17457 0,4.73278 -30.2111,38.4015 -52.191,58.16417 -11.2234,10.09131 -41.25337,32.42951 -56.35727,41.92211 -32.8702,20.6587 -92.05844,44.8504 -136.53115,55.8038 -14.83556,3.654 -67.30159,8.2179 -67.30159,5.8545 z M 1135.4416,651.11046 c -3.0731,-3.90685 -5.2828,-5.21572 -5.2828,-3.12914 0,5.2034 8.3704,16.43113 9.569,12.8354 0.5482,-1.64457 -1.3806,-6.0124 -4.2862,-9.70626 z M 628.57144,1036.9252 c -14.36924,-1.9688 -56.76444,-13.0152 -66.47741,-17.3213 -29.20896,-12.9493 -61.61331,-29.8172 -65.4722,-34.08122 -3.76755,-4.1631 -1.50474,-3.78128 15.51543,2.618 20.376,7.66103 58.60236,18.50882 74.52942,21.14972 4.88889,0.8107 22.24279,2.5577 38.56424,3.8824 56.84127,4.6131 114.654,-5.6165 167.15005,-29.57624 23.84155,-10.8815 64.57961,-38.13936 84.54791,-56.571 9.48549,-8.75553 17.76902,-15.39644 18.40788,-14.75759 2.83639,2.8364 -16.99833,28.15698 -39.38007,50.27172 -51.48383,50.86971 -116.2145,76.73951 -189.68894,75.81001 -16.5425,-0.2093 -33.50583,-0.8503 -37.69631,-1.4245 z m 59.79792,-3.408 c 14.3277,-1.4703 29.02022,-4.1687 32.65003,-5.9965 3.62982,-1.8278 13.38154,-4.0882 21.67051,-5.023 8.28896,-0.9348 16.31697,-2.7338 17.84005,-3.9979 1.52307,-1.264 8.45546,-4.2185 15.40536,-6.5656 13.17727,-4.4503 45.94605,-25.33863 63.42979,-40.43324 10.14999,-8.76299 10.15278,-8.77064 3.26298,-8.8659 -3.91743,-0.0541 -10.49889,2.92114 -15.23809,6.88876 -18.72864,15.67944 -81.2922,39.69688 -120.40371,46.22168 -28.61024,4.7728 -75.33639,5.2249 -108.51658,1.0499 -16.55596,-2.0832 -30.6687,-3.2207 -31.36162,-2.5278 -1.54566,1.5457 23.71494,9.2245 30.34524,9.2245 2.63195,0 7.08704,1.2318 9.90014,2.7373 2.81313,1.5055 16.16655,4.2449 29.67431,6.0875 13.50776,1.8426 24.72417,3.468 24.92539,3.6119 0.20114,0.144 12.08848,-0.9413 26.4162,-2.4116 z M 1056.6865,907.93652 c 26.5454,-79.14553 22.5604,-156.97169 -11.7524,-229.52163 -6.1929,-13.09404 -15.3436,-29.49171 -20.3349,-36.43924 -4.9914,-6.94755 -8.5889,-13.1182 -7.9946,-13.71251 0.5943,-0.59431 8.3871,6.67404 17.3174,16.15188 27.0211,28.67807 47.3737,67.55654 57.143,109.15713 6.404,27.26999 3.88,82.20797 -4.9663,108.09841 -8.0115,23.44747 -21.6853,50.88927 -30.6464,61.50405 l -6.432,7.61905 z m 30.126,-69.05311 c 8.2984,-44.18026 4.3802,-83.54484 -11.6655,-117.2 -9.8612,-20.68343 -13.6979,-22.59251 -7.5419,-3.75268 6.9397,21.23809 12.3155,79.87469 10.4346,113.81531 -1.5732,28.38743 -1.4091,30.09506 2.3946,24.91515 2.2459,-3.05859 5.1161,-11.05859 6.3782,-17.77778 z m -25.2252,-146.9698 c 0,-2.17768 -1.1615,-3.24155 -2.5811,-2.36419 -1.4196,0.87736 -1.9236,2.6591 -1.1199,3.95941 2.1771,3.52264 3.701,2.86581 3.701,-1.59522 z M 711.11113,917.63656 C 649.18691,907.52456 607.42724,888.93593 569.56728,854.63069 527.12514,816.17352 493.60694,751.2266 484.91529,690.60384 c -3.96275,-27.63951 -3.97819,-79.32571 -0.0315,-105.20701 14.14804,-92.77661 69.71317,-171.78182 145.58045,-206.99332 37.55035,-17.42786 91.4654,-27.26354 133.0031,-24.26362 85.473,6.17298 149.47698,40.65666 191.17944,103.00249 13.13912,19.64317 32.90885,64.7199 29.76409,67.86466 -1.08747,1.08747 -96.88425,28.76026 -111.30995,32.15408 -6.57112,1.54596 -7.37986,0.61557 -17.0174,-19.57701 -22.67383,-47.50654 -58.13181,-70.28252 -109.41684,-70.28252 -64.23649,0 -107.96498,37.80541 -126.05463,108.98042 -5.02263,19.76196 -6.18512,30.65547 -6.16645,57.78504 0.0617,89.62581 33.08307,147.50106 94.90037,166.32829 14.02519,4.27154 21.92315,5.0483 41.90476,4.12134 58.87056,-2.73099 91.88343,-30.28919 115.50949,-96.424 1.42022,-3.97552 2.88498,-3.90842 20.08429,0.91992 33.17816,9.31409 97.09717,30.10368 99.28623,32.29273 6.69056,6.69056 -28.64622,71.30819 -55.32122,101.1616 -31.99383,35.80602 -82.43221,62.797 -136.5247,73.05819 -18.47993,3.50557 -67.08082,4.73935 -83.17369,2.11144 z m 77.6288,-6.12937 c 8.28828,-1.52821 23.27111,-5.52821 33.29519,-8.88889 10.02405,-3.36069 20.18626,-6.11035 22.58268,-6.11035 4.21567,0 36.56017,-19.03073 39.24972,-23.09359 0.73029,-1.10319 4.73029,-3.75756 8.88889,-5.89859 11.02873,-5.67805 46.52907,-37.65829 46.75503,-42.11894 0.10615,-2.09523 4.50003,-9.5238 9.76419,-16.50793 14.09902,-18.70558 20.79984,-31.03972 26.1744,-48.1789 2.64106,-8.42225 4.81666,-15.46024 4.83469,-15.63997 0.0775,-0.77212 -15.09163,-5.82047 -29.17359,-9.70916 -8.38095,-2.31439 -20.20658,-6.47091 -26.27916,-9.2367 -6.07259,-2.76579 -17.50116,-6.5809 -25.39683,-8.47799 -7.89567,-1.89709 -16.07004,-4.13156 -18.16528,-4.96549 -5.93844,-2.36355 -8.41625,0.58929 -21.60973,25.75269 -26.28871,50.13948 -60.58913,71.74756 -113.8335,71.71119 -36.31375,-0.0254 -66.0515,-11.42527 -89.39611,-34.27155 -16.24707,-15.90021 -24.88643,-30.58872 -34.34093,-58.38575 -9.7773,-28.74613 -12.80224,-49.05907 -12.83764,-86.20681 -0.0406,-42.68254 8.22014,-77.44985 24.86616,-104.65457 5.00757,-8.18393 10.87063,-17.84633 13.02905,-21.47203 2.1584,-3.62573 6.41311,-8.19716 9.45489,-10.15873 3.0418,-1.9616 12.20579,-8.03228 20.36444,-13.49041 18.73194,-12.53161 30.77476,-16.13227 58.77979,-17.57451 45.36177,-2.3361 76.27103,7.64064 100.4305,32.41644 10.56846,10.83807 23.14075,32.1519 28.38664,48.12386 1.38588,4.21953 3.45092,4.62438 17.39348,3.41013 8.70148,-0.75784 24.39233,-4.25839 34.86852,-7.77905 10.47619,-3.52063 27.33333,-8.81785 37.46031,-11.7716 l 18.4127,-5.37047 V 512.6991 c 0,-11.96525 -12.89452,-43.09175 -21.85404,-52.75421 -3.34535,-3.60779 -6.08247,-7.25897 -6.08247,-8.1137 0,-0.8547 -3.27748,-4.98362 -7.2833,-9.17531 -4.00581,-4.1917 -8.29153,-9.24175 -9.52381,-11.22235 -2.99078,-4.80693 -29.53882,-27.624 -32.141,-27.624 -2.1725,0 -14.93166,-8.4814 -23.43284,-15.57651 -2.79365,-2.33158 -14.22222,-7.32361 -25.39682,-11.09341 -11.17461,-3.76978 -22.60318,-7.81635 -25.39683,-8.99241 -7.02636,-2.95786 -36.18873,-6.93551 -63.49207,-8.66008 -39.92264,-2.52163 -87.10649,5.9206 -123.1746,22.03873 -15.45618,6.90704 -14.67794,6.43593 -37.27909,22.56731 -26.61475,18.99609 -42.02408,35.27251 -66.87665,70.63995 -8.13163,11.57204 -21.56899,39.09227 -25.51273,52.25102 -1.67457,5.5873 -4.16539,13.01588 -5.53519,16.50794 -11.07292,28.22837 -16.08681,80.61057 -12.23693,127.8446 3.8002,46.62496 29.02867,113.61349 54.74217,145.35563 7.59896,9.38057 37.30063,39.48998 46.2574,46.8924 24.14865,19.95794 84.36226,44.65269 117.55213,48.21036 26.58339,2.84952 66.44475,2.71078 82.70817,-0.28787 z m -267.2926,-35.29677 c -53.8315,-14.11009 -105.41921,-47.85359 -136.62482,-89.36625 -19.98403,-26.58463 -44.23761,-75.26547 -41.53618,-83.3698 0.48358,-1.45077 5.69105,3.95972 11.57212,12.02331 14.8692,20.38728 46.39868,50.84737 70.53838,68.14594 19.52889,13.99443 50.3754,29.9665 70.56267,36.53673 6.95998,2.26522 12.53486,7.08666 20.21516,17.4831 5.83269,7.89542 16.65093,20.04645 24.04051,27.00231 7.38962,6.95584 13.43564,13.53732 13.43564,14.62553 0,3.23487 -12.76877,2.01328 -32.20348,-3.08087 z m 6.86963,-14.30448 c -4.52762,-5.15665 -9.19377,-10.62362 -10.36924,-12.14877 -14.48313,-18.79183 -21.21953,-24.05733 -40.55063,-31.69626 -21.11375,-8.34339 -49.74172,-24.50402 -60.88914,-34.37227 -3.49207,-3.09132 -9.20635,-7.55342 -12.69842,-9.91573 -3.49206,-2.36231 -11.49206,-8.25707 -17.77778,-13.0994 -6.28571,-4.84236 -12.25422,-8.832 -13.26336,-8.86588 -3.08566,-0.10362 11.86601,25.10644 23.68975,39.94331 6.13852,7.70283 16.30377,18.10647 22.58949,23.11919 6.28571,5.01275 15.42857,12.59126 20.31746,16.84117 10.16033,8.83235 33.80269,21.00038 59.68254,30.71685 17.33364,6.50783 34.57189,11.02651 36.52846,9.57521 0.53511,-0.3969 -2.73151,-4.94075 -7.25913,-10.09742 z M 437.09258,640.85319 c -14.66141,-19.82189 -33.27093,-54.54751 -39.24635,-73.23414 -5.80739,-18.16119 -11.81448,-55.25249 -11.81448,-72.94961 0,-33.6337 14.7262,-84.41991 33.44051,-115.32622 9.19574,-15.18659 20.12993,-27.05268 16.06893,-17.43845 -17.92384,42.43385 -26.65229,85.26796 -26.65229,130.79365 0,52.46019 10.62326,98.08315 33.33567,143.16437 5.53907,10.99436 9.53966,20.52117 8.89016,21.17064 -0.6495,0.6495 -6.95947,-6.63162 -14.02215,-16.18024 z m -27.5134,-79.31317 c -4.01836,-5.91711 -4.47868,-13.42286 -4.33874,-70.74636 0.0861,-35.26985 -0.55601,-64.12699 -1.42689,-64.12699 -2.31998,0 -7.08402,20.98766 -10.43688,45.979 -1.85854,13.85303 -2.18136,29.19235 -0.88188,41.90476 1.12739,11.029 1.82623,20.97725 1.55302,22.1072 -0.72016,2.97819 6.64546,24.50139 11.68243,34.1375 4.08971,7.82382 4.42063,7.97072 6.32976,2.80983 1.37394,-3.71411 0.58514,-7.55025 -2.48082,-12.06494 z m 723.02182,37.19015 c -12.7755,-17.79655 -47.8689,-51.86754 -67.027,-65.07409 -9.8752,-6.80749 -26.1831,-16.5075 -36.2397,-21.55558 l -18.2847,-9.17834 -15.36607,-30.69711 c -8.45133,-16.88341 -15.36605,-31.70449 -15.36605,-32.93572 0,-4.63589 39.46812,12.94989 60.08742,26.7731 32.6372,21.88 65.2048,58.12041 82.1352,91.39789 9.2159,18.11437 21.4946,52.0635 18.8303,52.0635 -0.5616,0 -4.5078,-4.85715 -8.7694,-10.79365 z m -19.0669,-44.35904 c -3.5287,-7.08114 -9.2342,-15.91591 -12.6789,-19.63279 -3.4447,-3.7169 -7.8569,-9.83929 -9.805,-13.60531 -4.6309,-8.9525 -31.7668,-34.22047 -48.4836,-45.14615 -4.1031,-2.68168 -10.2403,-7.44719 -13.6382,-10.59005 -3.3979,-3.14286 -7.7709,-5.71429 -9.7179,-5.71429 -1.9469,0 -8.0035,-2.2772 -13.4592,-5.06046 -5.4556,-2.78327 -10.51235,-4.10091 -11.2372,-2.92811 -0.72482,1.1728 3.21969,11.00511 8.7656,21.84955 11.4507,22.39056 17.5022,28.18967 43.0695,41.27294 4.8889,2.50174 9.4603,5.12005 10.1588,5.81847 2.6235,2.62356 12.7353,7.61904 15.4223,7.61904 2.7347,0 7.9642,4.37778 33.9096,28.38652 7.0603,6.53321 13.1233,11.59213 13.4734,11.24201 0.3501,-0.35013 -2.2505,-6.43025 -5.7792,-13.51137 z M 744.10277,319.64884 c 9.62136,-8.00371 27.46095,-16.38898 49.74395,-23.38148 35.1822,-11.04033 45.6688,-12.5518 78.35015,-11.2928 37.16058,1.43154 49.10225,5.56152 18.36698,6.35215 -40.17889,1.03357 -66.33231,7.11868 -102.9825,23.96096 -16.85473,7.74545 -24.28505,9.77405 -35.55556,9.7072 l -14.248,-0.0846 6.32498,-5.26153 z m 33.0401,-4.72091 c 0,-1.39282 3.71429,-4.15675 8.25397,-6.14205 6.83977,-2.99116 7.29979,-3.64513 2.68485,-3.81681 -4.95852,-0.18438 -23.63723,8.88122 -23.63723,11.47228 0,0.56043 2.85714,1.01897 6.34921,1.01897 3.49206,0 6.3492,-1.13958 6.3492,-2.53239 z M 371.42858,0.63498566 c 204.98413,-0.35852209 540.41271,-0.35852209 745.39682,0 204.9842,0.35852206 37.2699,0.65185834 -372.6984,0.65185834 -409.96826,0 -577.68255,-0.29333628 -372.69842,-0.65185834 z"
         id="path152" />
    </g>
  </g>
</svg>
